<svg xmlns="http://www.w3.org/2000/svg" viewBox="0 0 800 600" fill="#1A3A5C" opacity="0.15">
  <path d="M400,50 C450,45 500,40 530,55 C560,70 590,65 620,80 C650,95 670,90 690,110 C710,130 720,150 730,180 C740,210 745,240 740,270 C735,300 720,330 700,350 C680,370 660,380 640,395 C620,410 600,420 580,435 C560,450 540,465 520,475 C500,485 480,490 460,495 C440,500 420,505 400,505 C380,505 360,500 340,495 C320,490 300,485 280,475 C260,465 240,450 220,435 C200,420 180,410 160,395 C140,380 120,370 100,350 C80,330 65,300 60,270 C55,240 60,210 70,180 C80,150 90,130 110,110 C130,90 150,95 180,80 C210,65 240,70 270,55 C300,40 350,45 400,50 Z" stroke="#1A3A5C" stroke-width="1" fill="none"/>
  <path d="M200,200 L200,350 M200,275 L250,275 M200,275 L150,275" stroke="#1A3A5C" stroke-width="0.5" fill="none"/>
  <path d="M350,150 L350,280 M350,215 L400,215 M350,215 L300,215" stroke="#1A3A5C" stroke-width="0.5" fill="none"/>
  <path d="M500,180 L500,320 M500,250 L550,250 M500,250 L450,250" stroke="#1A3A5C" stroke-width="0.5" fill="none"/>
  <path d="M600,250 L600,380 M600,315 L650,315 M600,315 L550,315" stroke="#1A3A5C" stroke-width="0.5" fill="none"/>
  <path d="M300,350 L300,450 M300,400 L340,400 M300,400 L260,400" stroke="#1A3A5C" stroke-width="0.5" fill="none"/>
  <path d="M450,380 L450,480 M450,430 L490,430 M450,430 L410,430" stroke="#1A3A5C" stroke-width="0.5" fill="none"/>
  <circle cx="400" cy="280" r="80" stroke="#1A3A5C" stroke-width="0.3" fill="none"/>
  <circle cx="400" cy="280" r="40" stroke="#1A3A5C" stroke-width="0.3" fill="none"/>
</svg>
